<?xml version="1.0" encoding="UTF-8" standalone="no"?>
<!-- Created with Inkscape (http://www.inkscape.org/) -->
<svg xmlns:dc="http://purl.org/dc/elements/1.1/" xmlns:cc="http://creativecommons.org/ns#" xmlns:rdf="http://www.w3.org/1999/02/22-rdf-syntax-ns#" xmlns:svg="http://www.w3.org/2000/svg" xmlns="http://www.w3.org/2000/svg" xmlns:xlink="http://www.w3.org/1999/xlink" xmlns:sodipodi="http://sodipodi.sourceforge.net/DTD/sodipodi-0.dtd" xmlns:inkscape="http://www.inkscape.org/namespaces/inkscape" id="svg4136" version="1.1" inkscape:version="0.91 r13725" width="387.5" height="387.5" viewBox="0 0 387.5 387.5" sodipodi:docname="pygame.svg">
  <metadata id="metadata4142">
    <rdf:RDF>
      <cc:Work rdf:about="">
        <dc:format>image/svg+xml</dc:format>
        <dc:type rdf:resource="http://purl.org/dc/dcmitype/StillImage"/>
        <dc:title/>
      </cc:Work>
    </rdf:RDF>
  </metadata>
  <defs id="defs4140"/>
  <sodipodi:namedview pagecolor="#ffffff" bordercolor="#666666" borderopacity="1" objecttolerance="10" gridtolerance="10" guidetolerance="10" inkscape:pageopacity="0" inkscape:pageshadow="2" inkscape:window-width="1920" inkscape:window-height="1001" id="namedview4138" showgrid="false" inkscape:zoom="2.1393548" inkscape:cx="256.16011" inkscape:cy="189.74973" inkscape:window-x="-9" inkscape:window-y="-9" inkscape:window-maximized="1" inkscape:current-layer="layer1"/>
  
  <g inkscape:groupmode="layer" id="layer1" inkscape:label="KopieLaag" style="display:inline">
    <path style="fill:#ac9300;fill-opacity:1;fill-rule:evenodd;stroke:#000000;stroke-width:4;stroke-linecap:butt;stroke-linejoin:miter;stroke-miterlimit:4;stroke-dasharray:none;stroke-opacity:1" d="M 83.670084,400.12063 C 102.51523,347.61793 99.824542,258.0586 87.87696,201.46261 85.138837,189.47556 75.697409,158.97034 79.930639,151.91496 91.775092,132.1742 182.21267,130.34226 201.46261,134.62002 c 20.61352,4.58079 35.00361,13.19861 53.28709,21.03438 19.36908,8.30104 53.14201,27.75568 62.6357,46.74307 4.23109,8.46216 -44.32368,109.68175 -51.41737,123.86912 -6.72468,13.44936 -21.22164,91.74734 -25.24125,92.55126 -25.97967,5.19594 -62.40731,-3.68234 -86.9421,-9.81604 -20.60928,-5.15232 -54.909194,6.32422 -70.114596,-8.88118 z" id="path10089" inkscape:connector-curvature="0" sodipodi:nodetypes="ccsssssssc"/>
    <path style="display:inline;fill:#dcbc00;fill-opacity:1;fill-rule:evenodd;stroke:#000000;stroke-width:0;stroke-linecap:butt;stroke-linejoin:miter;stroke-miterlimit:4;stroke-dasharray:none;stroke-opacity:1" d="m 201.11203,394.16089 c 0.0876,-2.72472 1.35921,-5.37443 1.98658,-8.06318 2.1428,-9.18341 4.54104,-17.64069 7.82947,-26.40983 0.85573,-2.28196 0.95334,-4.88965 1.98658,-7.12832 2.10781,-4.56692 5.13069,-9.7387 5.84288,-14.72407 1.02212,-7.15481 0.34883,-18.57862 5.60917,-23.83896 2.26023,-2.26023 14.43662,3.07062 16.71064,3.73945 2.3489,0.69085 20.02777,4.92647 20.68381,6.8946 2.35801,7.07405 -7.0448,30.72039 -8.2969,37.51131 -2.18001,11.82361 -4.03709,22.39474 -7.47889,32.72014" id="path10133" inkscape:connector-curvature="0" sodipodi:nodetypes="cssssssssc"/>
    <path style="fill:#d0d5d3;fill-opacity:1;fill-rule:evenodd;stroke:#000000;stroke-width:4;stroke-linecap:butt;stroke-linejoin:miter;stroke-miterlimit:4;stroke-dasharray:none;stroke-opacity:1" d="m 103.0249,195.92529 c -55.53677,2.26487 -74.31242,80.84063 -21.1535,107.4201 27.53969,13.76984 65.24479,7.71436 97.17388,10.90727 9.91611,0.99161 28.90568,-3.72595 37.67966,0.66104 8.16804,4.08402 15.76688,10.19711 24.45873,14.54303 6.47445,3.23723 36.81568,3.59323 44.62066,0.99157 17.66498,-8.97637 28.33189,-25.37827 35.03547,-44.29013 6.70358,-18.91186 1.61407,-34.45154 -7.93256,-47.26484 C 277.3022,195.70262 166.72445,196.9358 103.0249,195.92529 Z" id="path10077" inkscape:connector-curvature="0" sodipodi:nodetypes="cssssczcc"/>
    <path style="opacity:1;fill:#465e64;fill-opacity:1;stroke:#000000;stroke-width:0;stroke-linecap:round;stroke-linejoin:round;stroke-miterlimit:4;stroke-dasharray:none;stroke-dashoffset:0;stroke-opacity:1" id="path10073" sodipodi:type="arc" sodipodi:cx="265.73431" sodipodi:cy="272.97952" sodipodi:rx="48.846504" sodipodi:ry="47.444206" sodipodi:start="0" sodipodi:end="6.1283746" sodipodi:open="true" d="m 314.58082,272.97952 a 48.846504,47.444206 0 0 1 -46.95649,47.40868 48.846504,47.444206 0 0 1 -50.59026,-43.73991 48.846504,47.444206 0 0 1 43.04151,-50.79353 48.846504,47.444206 0 0 1 53.92107,39.80919"/>
    <path style="fill:#d4d8df;fill-opacity:1;fill-rule:evenodd;stroke:#000000;stroke-width:0;stroke-linecap:butt;stroke-linejoin:miter;stroke-miterlimit:4;stroke-dasharray:none;stroke-opacity:1" d="m 266.20176,242.12907 c 13.66835,-8.60984 29.09942,14.60482 14.95777,21.96924 -11.1283,5.79519 -25.65652,13.93433 -36.69331,20.09951 -14.13254,7.89448 -28.51435,-16.38769 -12.79762,-24.26629 15.35367,-7.61616 22.29254,-10.85773 34.53316,-17.80246 z" id="path10069" inkscape:connector-curvature="0" sodipodi:nodetypes="csscc"/>
    <path sodipodi:nodetypes="csscc" inkscape:connector-curvature="0" id="path10071" d="m 286.76871,264.79946 c 16.31254,-9.60141 30.09099,14.43955 14.95777,21.96924 -11.23318,5.58918 -25.705,13.84834 -36.69331,20.09951 -15.6199,8.88605 -30.33222,-14.73508 -13.78919,-23.60524 15.35367,-7.61616 23.28411,-11.51878 35.52473,-18.46351 z" style="fill:#d4d8df;fill-opacity:1;fill-rule:evenodd;stroke:#000000;stroke-width:0;stroke-linecap:butt;stroke-linejoin:miter;stroke-miterlimit:4;stroke-dasharray:none;stroke-opacity:1"/>
    <g id="g10063">
      <path sodipodi:open="true" d="m 301.9602,276.60208 a 10.867763,11.568909 0 0 1 -10.44724,11.56025 10.867763,11.568909 0 0 1 -11.25574,-10.66561 10.867763,11.568909 0 0 1 9.57617,-12.38565 10.867763,11.568909 0 0 1 11.99683,9.7071" sodipodi:end="6.1283689" sodipodi:start="0" sodipodi:ry="11.568909" sodipodi:rx="10.867763" sodipodi:cy="276.60208" sodipodi:cx="291.09244" sodipodi:type="arc" id="path10055" style="opacity:1;fill:#c60000;fill-opacity:1;stroke:#000000;stroke-width:0;stroke-linecap:round;stroke-linejoin:round;stroke-miterlimit:4;stroke-dasharray:none;stroke-dashoffset:0;stroke-opacity:1"/>
      <path style="opacity:1;fill:#c60000;fill-opacity:1;stroke:#000000;stroke-width:0;stroke-linecap:round;stroke-linejoin:round;stroke-miterlimit:4;stroke-dasharray:none;stroke-dashoffset:0;stroke-opacity:1" id="path10057" sodipodi:type="arc" sodipodi:cx="261.41058" sodipodi:cy="293.897" sodipodi:rx="10.867763" sodipodi:ry="11.568909" sodipodi:start="0" sodipodi:end="6.1283689" d="m 272.27835,293.897 a 10.867763,11.568909 0 0 1 -10.44724,11.56025 10.867763,11.568909 0 0 1 -11.25575,-10.66561 10.867763,11.568909 0 0 1 9.57618,-12.38565 10.867763,11.568909 0 0 1 11.99683,9.7071" sodipodi:open="true"/>
      <path sodipodi:open="true" d="m 252.64627,269.59061 a 10.867763,11.568909 0 0 1 -10.44724,11.56024 10.867763,11.568909 0 0 1 -11.25575,-10.66561 10.867763,11.568909 0 0 1 9.57618,-12.38564 10.867763,11.568909 0 0 1 11.99683,9.7071" sodipodi:end="6.1283689" sodipodi:start="0" sodipodi:ry="11.568909" sodipodi:rx="10.867763" sodipodi:cy="269.59061" sodipodi:cx="241.7785" sodipodi:type="arc" id="path10059" style="opacity:1;fill:#c60000;fill-opacity:1;stroke:#000000;stroke-width:0;stroke-linecap:round;stroke-linejoin:round;stroke-miterlimit:4;stroke-dasharray:none;stroke-dashoffset:0;stroke-opacity:1"/>
      <path style="opacity:1;fill:#c60000;fill-opacity:1;stroke:#000000;stroke-width:0;stroke-linecap:round;stroke-linejoin:round;stroke-miterlimit:4;stroke-dasharray:none;stroke-dashoffset:0;stroke-opacity:1" id="path10061" sodipodi:type="arc" sodipodi:cx="268.42206" sodipodi:cy="256.03513" sodipodi:rx="10.867763" sodipodi:ry="11.568909" sodipodi:start="0" sodipodi:end="6.1283689" d="m 279.28982,256.03513 a 10.867763,11.568909 0 0 1 -10.44724,11.56024 10.867763,11.568909 0 0 1 -11.25574,-10.66561 10.867763,11.568909 0 0 1 9.57617,-12.38564 10.867763,11.568909 0 0 1 11.99683,9.70709" sodipodi:open="true"/>
    </g>
    <path style="fill:#f4f4f4;fill-opacity:1;fill-rule:evenodd;stroke:#000000;stroke-width:4;stroke-linecap:butt;stroke-linejoin:miter;stroke-miterlimit:4;stroke-dasharray:none;stroke-opacity:1" d="m 273.68064,227.405 -12.15319,61.70085 -6.77775,-60.53227 z" id="path10051" inkscape:connector-curvature="0"/>
    <path style="fill:#edca00;fill-opacity:1;fill-rule:evenodd;stroke:#000000;stroke-width:4;stroke-linecap:butt;stroke-linejoin:miter;stroke-miterlimit:4;stroke-dasharray:none;stroke-opacity:1" d="m 162.19843,21.034379 c 25.67165,-3.434285 33.23545,25.015519 54.22196,28.513269 33.86205,5.643675 44.59253,-25.381658 83.20265,-6.076599 30.90685,15.453427 21.01195,40.621608 33.18758,64.972861 11.7772,23.5544 17.80135,50.32655 11.21833,76.65862 -6.35711,25.42845 -132.12142,67.46808 -164.06815,54.68939 C 158.21026,231.0917 141.09879,207.88704 130.88058,203.79976 109.36417,195.1932 78.034425,172.86986 70.582027,150.51267 68.45294,125.82591 88.06538,102.87547 98.160434,81.800362 115.41274,47.295753 121.83958,26.799928 162.19843,21.034379 Z" id="path10026" inkscape:connector-curvature="0" sodipodi:nodetypes="cssssssccc"/>
    <path style="fill:#ffffff;fill-opacity:1;fill-rule:evenodd;stroke:#000000;stroke-width:4;stroke-linecap:butt;stroke-linejoin:miter;stroke-miterlimit:4;stroke-dasharray:none;stroke-opacity:1" d="m 254.7497,150.04524 c -32.1844,-10.53487 -29.96528,-49.30285 -20.56695,-70.114601 5.00923,-10.018461 28.30472,-31.43165 47.21049,-25.241254 18.90578,6.190396 22.92245,35.989407 20.56695,54.221955 -2.3555,18.23254 -15.02609,51.66876 -47.21049,41.1339 z" id="path10047" inkscape:connector-curvature="0" sodipodi:nodetypes="zczzz"/>
    <path style="fill:#ffffff;fill-opacity:1;fill-rule:evenodd;stroke:#000000;stroke-width:4;stroke-linecap:butt;stroke-linejoin:miter;stroke-miterlimit:4;stroke-dasharray:none;stroke-opacity:1" d="m 163.60072,40.199035 c 48.82745,0.710629 48.79465,106.807325 -12.62063,99.562725 -61.415266,-7.24459 -29.4344,-97.827182 12.62063,-99.562725 z" id="path10028" inkscape:connector-curvature="0" sodipodi:nodetypes="czc"/>
    <path inkscape:connector-curvature="0" id="path10053" d="m 136.4119,203.66531 -16.82588,60.5936 -2.13903,-60.87297 z" style="fill:#f4f4f4;fill-opacity:1;fill-rule:evenodd;stroke:#000000;stroke-width:4;stroke-linecap:butt;stroke-linejoin:miter;stroke-miterlimit:4;stroke-dasharray:none;stroke-opacity:1"/>
    <path style="fill:#fee32d;fill-opacity:1;fill-rule:evenodd;stroke:#000000;stroke-width:4;stroke-linecap:butt;stroke-linejoin:miter;stroke-miterlimit:4;stroke-dasharray:none;stroke-opacity:1" d="m 150.51267,137.89204 c 19.66416,-3.6588 42.43239,-6.80369 64.50542,-5.14174 34.82737,2.62228 97.89072,37.46645 75.72376,81.80036 -8.93965,17.87932 -57.69888,28.4929 -75.25633,28.51327 -36.75808,0.0426 -75.83364,-0.97584 -100.96501,-43.00362 -16.004815,-32.52318 9.55254,-57.33365 35.99216,-62.16827 z" id="path10020" inkscape:connector-curvature="0" sodipodi:nodetypes="cssscc"/>
    <path style="fill:#000000;fill-opacity:1;fill-rule:evenodd;stroke:#000000;stroke-width:1.10661173px;stroke-linecap:butt;stroke-linejoin:miter;stroke-opacity:1" d="m 173.4174,106.16223 c 14.35362,2.82008 11.32711,22.70453 -3.69412,19.26756 -15.02122,-3.43697 -10.65949,-22.08763 3.69412,-19.26756 z" id="path10030" inkscape:connector-curvature="0" sodipodi:nodetypes="zzz"/>
    <path style="display:inline;fill:#000000;fill-opacity:1;fill-rule:evenodd;stroke:#000000;stroke-width:1.10661173px;stroke-linecap:butt;stroke-linejoin:miter;stroke-opacity:1" d="m 255.22412,114.17968 c 14.35362,2.82008 11.32711,22.70453 -3.69412,19.26756 -15.02122,-3.43697 -10.65949,-22.08763 3.69412,-19.26756 z" id="path10030-2" inkscape:connector-curvature="0" sodipodi:nodetypes="zzz"/>
    <path style="fill:#fee32d;fill-opacity:1;fill-rule:evenodd;stroke:#000000;stroke-width:4;stroke-linecap:butt;stroke-linejoin:miter;stroke-miterlimit:4;stroke-dasharray:none;stroke-opacity:1" d="m 152.37128,295.6145 c 5.46009,3.64007 14.45769,6.14133 20.82297,8.26309 12.65619,4.21873 41.69235,-7.1787 48.91746,7.27151 2.88141,5.76283 8.52315,13.83328 6.61047,21.48402 -9.07128,36.28509 -125.82976,31.33164 -112.70848,-21.1535 7.08474,-14.27771 25.24244,-22.84533 36.35758,-15.86512 z" id="path10075" inkscape:connector-curvature="0" sodipodi:nodetypes="cssscc"/>
    <path style="fill:#2e3638;fill-opacity:1;fill-rule:evenodd;stroke:#000000;stroke-width:0;stroke-linecap:butt;stroke-linejoin:miter;stroke-miterlimit:4;stroke-dasharray:none;stroke-opacity:1" d="m 197.72316,264.44888 c 2.74945,0.84287 4.78139,4.37377 3.73945,6.66089 -0.82158,1.64315 -9.33833,8.46704 -11.10148,9.34861 -4.8736,2.4368 -10.6033,-2.61699 -7.59575,-7.12831 2.19378,-3.35495 12.11298,-8.80661 14.95778,-8.88119 z" id="path10081" inkscape:connector-curvature="0" sodipodi:nodetypes="ccscc"/>
    <path sodipodi:nodetypes="ccscc" inkscape:connector-curvature="0" id="path10083" d="m 197.72316,264.44888 c 2.74945,0.84287 4.78139,4.37377 3.73945,6.66089 -0.82158,1.64315 -9.33833,8.46704 -11.10148,9.34861 -4.8736,2.4368 -10.6033,-2.61699 -7.59575,-7.12831 2.19378,-3.35495 12.11298,-8.80661 14.95778,-8.88119 z" style="fill:#2e3638;fill-opacity:1;fill-rule:evenodd;stroke:#000000;stroke-width:0;stroke-linecap:butt;stroke-linejoin:miter;stroke-miterlimit:4;stroke-dasharray:none;stroke-opacity:1"/>
    <path style="fill:#2e3638;fill-opacity:1;fill-rule:evenodd;stroke:#000000;stroke-width:0;stroke-linecap:butt;stroke-linejoin:miter;stroke-miterlimit:4;stroke-dasharray:none;stroke-opacity:1" d="m 170.14475,259.89143 c 2.74945,0.84287 4.78139,4.37377 3.73945,6.66089 -0.82158,1.64315 -9.33833,8.46704 -11.10148,9.34861 -4.8736,2.4368 -10.6033,-2.61699 -7.59575,-7.12831 2.19378,-3.35495 12.11298,-8.80661 14.95778,-8.88119 z" id="path10085" inkscape:connector-curvature="0" sodipodi:nodetypes="ccscc"/>
    <path style="fill:#010101;fill-opacity:1;fill-rule:evenodd;stroke:#000000;stroke-width:0;stroke-linecap:butt;stroke-linejoin:miter;stroke-miterlimit:4;stroke-dasharray:none;stroke-opacity:1" d="m 105.63932,231.37817 15.07464,-0.35058 -0.35057,17.76237 12.62063,0.35057 0.23371,15.77578 -14.02292,-0.58428 -2.33715,13.32177 -16.24321,0.35057 -0.11686,-17.29493 -12.036341,-0.818 0.46743,-15.1915 16.243211,0.58429 z" id="path10087" inkscape:connector-curvature="0"/>
    <g style="display:inline" id="g10095">
      <path inkscape:connector-curvature="0" id="path10091" d="m 218.52382,188.14083 c 8.04722,-12.49428 37.16074,-7.20822 37.16074,7.71261 0,2.38319 -7.75959,9.76906 -9.81604,7.7126 -1.27927,-1.27926 -0.24424,-7.18129 -1.86973,-9.34861 -5.74684,-7.66245 -17.67549,-5.10166 -25.47497,-6.0766 z" style="fill:#c2a500;fill-opacity:1;fill-rule:evenodd;stroke:#000000;stroke-width:0;stroke-linecap:butt;stroke-linejoin:miter;stroke-miterlimit:4;stroke-dasharray:none;stroke-opacity:1"/>
      <path style="fill:#c2a500;fill-opacity:1;fill-rule:evenodd;stroke:#000000;stroke-width:0;stroke-linecap:butt;stroke-linejoin:miter;stroke-miterlimit:4;stroke-dasharray:none;stroke-opacity:1" d="m 144.66978,177.62364 c 8.04722,-12.49428 37.16074,-7.20822 37.16074,7.71261 0,2.38319 -7.75959,9.76906 -9.81604,7.7126 -1.27927,-1.27926 -0.24424,-7.18129 -1.86973,-9.34861 -5.74684,-7.66245 -17.67549,-5.10166 -25.47497,-6.0766 z" id="path10093" inkscape:connector-curvature="0"/>
    </g>
    <g style="display:inline" id="g10110">
      <rect y="237.27713" x="286.23325" height="8.4283457" width="7.2715144" id="rect10102" style="opacity:1;fill:#8c9ca2;fill-opacity:1;stroke:#000000;stroke-width:0;stroke-linecap:round;stroke-linejoin:round;stroke-miterlimit:4;stroke-dasharray:none;stroke-dashoffset:0;stroke-opacity:1"/>
      <rect style="opacity:1;fill:#8c9ca2;fill-opacity:1;stroke:#000000;stroke-width:0;stroke-linecap:round;stroke-linejoin:round;stroke-miterlimit:4;stroke-dasharray:none;stroke-dashoffset:0;stroke-opacity:1" id="rect10104" width="7.2715158" height="6.4452066" x="305.40359" y="261.90112"/>
      <rect y="302.72076" x="238.80313" height="6.4452066" width="7.2715158" id="rect10106" style="opacity:1;fill:#8c9ca2;fill-opacity:1;stroke:#000000;stroke-width:0;stroke-linecap:round;stroke-linejoin:round;stroke-miterlimit:4;stroke-dasharray:none;stroke-dashoffset:0;stroke-opacity:1"/>
      <rect style="opacity:1;fill:#8c9ca2;fill-opacity:1;stroke:#000000;stroke-width:0;stroke-linecap:round;stroke-linejoin:round;stroke-miterlimit:4;stroke-dasharray:none;stroke-dashoffset:0;stroke-opacity:1" id="rect10108" width="6.4452081" height="6.1146841" x="219.30225" y="278.75781"/>
    </g>
    <path style="display:inline;fill:#fffad7;fill-opacity:1;fill-rule:evenodd;stroke:#000000;stroke-width:0;stroke-linecap:butt;stroke-linejoin:miter;stroke-miterlimit:4;stroke-dasharray:none;stroke-opacity:1" d="m 198.23139,54.662961 c 4.23575,-3.940656 12.32382,8.587699 8.67624,10.411486 -0.96569,0.482844 -3.67196,0.691996 -4.70996,0 -1.5652,-1.043467 -4.90797,-8.528092 -3.96628,-10.411486 z" id="path10121" inkscape:connector-curvature="0"/>
    <path style="display:inline;fill:#fffad7;fill-opacity:1;fill-rule:evenodd;stroke:#000000;stroke-width:0;stroke-linecap:butt;stroke-linejoin:miter;stroke-miterlimit:4;stroke-dasharray:none;stroke-opacity:1" d="m 303.42091,50.131936 c 2.59777,2.630035 12.22743,14.163805 7.82947,13.789203 -4.39796,-0.374602 -8.57682,-7.294408 -10.75091,-11.45205 -0.19108,-0.573256 -1.06171,-1.557586 -0.70114,-2.278725 0.61983,-1.239657 2.94559,-1.073925 3.62258,-0.05843 z" id="path10124" inkscape:connector-curvature="0" sodipodi:nodetypes="czcsc"/>
    <path style="display:inline;fill:#fffedc;fill-opacity:1;fill-rule:evenodd;stroke:#000000;stroke-width:0;stroke-linecap:butt;stroke-linejoin:miter;stroke-miterlimit:4;stroke-dasharray:none;stroke-opacity:1" d="m 336.60849,167.8076 c 1.89749,-0.94875 2.51244,3.69037 2.51244,4.67431 0,4.3779 -3.57647,9.24714 -6.13503,12.44534 -0.82812,1.03515 -6.64148,5.41425 -7.82946,3.0383 -0.23994,-0.47988 0.0782,-2.08413 0.46743,-2.27873 4.68378,-2.44189 9.72424,-17.14648 10.98462,-17.87922 z" id="path10127" inkscape:connector-curvature="0" sodipodi:nodetypes="cssscc"/>
    <path style="display:inline;fill:#fefec1;fill-opacity:1;fill-rule:evenodd;stroke:#000000;stroke-width:0;stroke-linecap:butt;stroke-linejoin:miter;stroke-miterlimit:4;stroke-dasharray:none;stroke-opacity:1" d="m 281.77118,171.25508 c 1.82064,3.0344 3.62377,11.48169 -3.05734,9.25466 -0.66039,-0.22013 -1.63262,-1.99577 -1.81788,-2.64419 -1.8903,-6.61604 -7.77897,-8.127 -9.25466,-11.81621 -0.3257,-0.81427 -1.16607,-2.8736 2.72682,-2.85077 4.27058,2.06058 9.0612,4.33468 11.40306,8.05651 z" id="path10130" inkscape:connector-curvature="0" sodipodi:nodetypes="cssscc"/>
  </g>
</svg>